<svg width="50" height="50" viewBox="0 0 50 50" fill="none" xmlns="http://www.w3.org/2000/svg">
<circle cx="25" cy="25" r="25" fill="#FFA500"/>
<path d="M47.6643 21.5299C47.6643 21.4586 47.6643 21.3872 47.6643 21.3159C46.8797 16.9636 44.8112 12.8255 41.4587 9.54346C38.1062 6.19011 33.9691 4.12102 29.618 3.33619C29.5467 3.33619 29.4754 3.33619 29.404 3.33619C22.4137 2.12327 14.9242 4.19236 9.57444 9.54346C4.15341 14.9659 2.08486 22.4574 3.36879 29.5209C3.36879 29.5209 3.36879 29.5209 3.36879 29.5922C4.15341 33.9445 6.22196 38.0826 9.57444 41.436C13.9969 45.8596 19.7032 48 25.4809 48C31.2586 48 37.0363 45.7882 41.3874 41.436C46.8084 36.0135 48.8769 28.522 47.6643 21.5299ZM29.7607 4.76315C33.4698 5.54797 36.9649 7.26032 39.8895 10.0429L31.6866 18.2479C28.4054 14.5378 27.6921 9.25807 29.7607 4.76315ZM40.8881 10.9704C43.6699 13.8957 45.3818 17.3917 46.1664 21.1018C41.6727 23.2423 36.3943 22.4574 32.6852 19.1754L40.8881 10.9704ZM28.4054 4.5491C26.1942 9.47211 27.1215 15.1799 30.8306 19.2468L25.5522 24.5265L11.001 10.0429C15.0668 6.26145 20.2739 4.33506 25.4809 4.33506C26.4795 4.33506 27.4068 4.40641 28.4054 4.5491ZM10.0738 10.9704L24.5536 25.4541L19.1326 30.8765C15.1381 27.2377 9.50311 26.3102 4.65271 28.3793C3.6541 22.3147 5.50867 15.8221 10.0738 10.9704ZM21.1298 46.145C17.492 45.3601 13.9969 43.6478 11.0724 40.8652L19.1326 32.8029C22.3424 36.513 23.127 41.65 21.1298 46.145ZM4.79538 29.8063C9.2178 27.7372 14.3535 28.522 18.0626 31.8754L10.0738 39.9377C7.29191 37.0124 5.58 33.5164 4.79538 29.8063ZM22.4851 46.359C24.5536 41.436 23.6263 35.7995 19.9885 31.8754L25.4096 26.4529L39.8895 40.9366C35.1104 45.4315 28.6194 47.2865 22.4851 46.359ZM40.8881 39.9377L26.4082 25.4541L31.6866 20.1743C34.2544 22.5288 37.5356 23.7417 40.8167 23.7417C42.6713 23.7417 44.5259 23.385 46.3091 22.6001C47.2364 28.6647 45.4531 35.086 40.8881 39.9377Z" fill="#231F20"/>
</svg>
