<svg width="100" height="122" viewBox="0 0 100 122" fill="none" xmlns="http://www.w3.org/2000/svg">
<path fill-rule="evenodd" clip-rule="evenodd" d="M25.226 6.69126C40.8322 -2.37663 60.0148 -2.21813 75.4746 7.10643C90.7824 16.6209 100.086 33.6015 99.9994 51.8678C99.6431 70.0142 89.6669 87.0719 77.1967 100.258C69.9992 107.903 61.9476 114.664 53.2063 120.401C52.3061 120.922 51.3199 121.27 50.2966 121.429C49.3117 121.387 48.3525 121.096 47.5057 120.582C34.1604 111.962 22.4525 100.958 12.9453 88.1002C4.98994 77.3673 0.470249 64.4004 8.31149e-06 50.9604C-0.0103275 32.6591 9.61981 15.7592 25.226 6.69126ZM34.2467 58.5353C36.8719 65.0072 43.0684 69.2287 49.9428 69.2287C54.4464 69.261 58.7756 67.4571 61.9658 64.2189C65.156 60.9806 66.9421 56.5771 66.9261 51.9895C66.9501 44.987 62.8276 38.6604 56.4833 35.9637C50.139 33.267 42.8245 34.7321 37.955 39.6749C33.0855 44.6178 31.6216 52.0634 34.2467 58.5353Z" fill="#FFA500"/>
<circle cx="50" cy="50" r="50" fill="#FFA500"/>
<path d="M95.3287 43.0598C95.3287 42.9171 95.3287 42.7744 95.3287 42.6317C93.7595 33.9273 89.6224 25.6509 82.9174 19.0869C76.2124 12.3802 67.9382 8.24203 59.236 6.67238C59.0934 6.67238 58.9507 6.67238 58.808 6.67238C44.8275 4.24655 29.8483 8.38473 19.1489 19.0869C8.30682 29.9318 4.16972 44.9149 6.73758 59.0418C6.73758 59.0418 6.73758 59.0418 6.73758 59.1845C8.30682 67.8889 12.4439 76.1653 19.1489 82.872C27.9937 91.7191 39.4064 96 50.9618 96C62.5172 96 74.0725 91.5764 82.7747 82.872C93.6168 72.0271 97.7539 57.044 95.3287 43.0598ZM59.5213 9.52629C66.9396 11.0959 73.9299 14.5206 79.7789 20.0858L63.3731 36.4958C56.8108 29.0756 55.3842 18.5161 59.5213 9.52629ZM81.7761 21.9408C87.3398 27.7914 90.7636 34.7835 92.3329 42.2037C83.3454 46.4845 72.7886 44.9149 65.3703 38.3509L81.7761 21.9408ZM56.8108 9.09821C52.3884 18.9442 54.243 30.3599 61.6612 38.4936L51.1045 49.0531L22.0021 20.0858C30.1336 12.5229 40.5477 8.67012 50.9618 8.67012C52.959 8.67012 54.8136 8.81281 56.8108 9.09821ZM20.1475 21.9408L49.1072 50.9081L38.2652 61.753C30.2763 54.4755 19.0062 52.6205 9.30543 56.7586C7.30821 44.6295 11.0173 31.6442 20.1475 21.9408ZM42.2596 92.2899C34.984 90.7203 27.9937 87.2956 22.1447 81.7304L38.2652 65.6058C44.6848 73.026 46.2541 83.3001 42.2596 92.2899ZM9.59075 59.6126C18.4356 55.4744 28.707 57.044 36.1253 63.7507L20.1475 79.8754C14.5838 74.0248 11.16 67.0327 9.59075 59.6126ZM44.9701 92.718C49.1072 82.872 47.2527 71.599 39.9771 63.7507L50.8192 52.9058L79.7789 81.8731C70.2208 90.8629 57.2388 94.573 44.9701 92.718ZM81.7761 79.8754L52.8164 50.9081L63.3731 40.3486C68.5088 45.0576 75.0711 47.4834 81.6334 47.4834C85.3426 47.4834 89.0517 46.7699 92.6182 45.2003C94.4728 57.3294 90.9063 70.1721 81.7761 79.8754Z" fill="#231F20"/>
</svg>
